<svg width="1338" height="513" viewBox="0 0 1338 513" fill="none" xmlns="http://www.w3.org/2000/svg">
<g clip-path="url(#clip0_1_20)">
<path d="M125.83 129.62C113.214 132.776 100.933 137.146 89.16 142.67C73.09 150.26 48.49 161.72 29.16 187.13C9.66001 212.7 5.01001 238.74 2.16001 254.94C0.530013 264.26 0.380013 280.76 0.0900134 313.75C-0.309987 357.89 1.41002 364.24 4.24002 370.49C13.85 391.77 32.56 403.72 42.29 409.93C62.4408 422.905 86.1669 429.203 110.1 427.93C136.68 426.87 213.02 427.21 318.43 427.93C321.901 427.744 325.352 427.282 328.75 426.55C336.054 424.922 343.042 422.111 349.44 418.23C367.278 407.6 381.318 391.625 389.57 372.57C393.33 363.7 394.85 356.29 396.49 348.35C398.77 336.957 399.929 325.369 399.95 313.75C400.3 289.91 400.56 272.01 395.8 251.48C385.45 206.86 358.01 178.48 353.59 173.98C322.9 142.98 288.34 133.98 276.79 131.08C267.64 128.82 253.39 127.95 224.89 126.24C157.93 122.23 135.06 127.3 125.83 129.62Z" fill="url(#paint0_linear_1_20)"/>
<path d="M143.94 126.43C144 120.55 144.057 114.67 144.11 108.79C143.917 106.868 143.917 104.932 144.11 103.01C144.42 99.93 145.01 99.13 145.37 98.73C146.312 97.8022 147.569 97.2631 148.89 97.22H245.22C246.324 97.484 247.351 98.001 248.22 98.73C249.621 99.9579 250.518 101.66 250.74 103.51V127.91L143.94 126.43Z" fill="url(#paint1_linear_1_20)"/>
<path d="M191.64 97.22V31.9C189.333 30.9623 187.278 29.4963 185.64 27.62C180.58 21.76 181.99 14.23 182.22 13.09C182.51 11.63 183.96 4.49 190.55 1.34C196.29 -1.41 201.87 0.819999 203.16 1.34C206.941 2.82963 210.054 5.64007 211.92 9.25C214.69 14.88 214.24 22.41 209.78 27.2C207.914 29.1482 205.553 30.5517 202.95 31.26V97.26L191.64 97.22Z" fill="url(#paint2_linear_1_20)"/>
<path d="M54.95 321.86C52.95 320.08 46.25 314.15 43.53 305.25C40.36 294.86 44.17 285.69 48.72 275.15C54.7196 261.603 63.3655 249.392 74.1498 239.232C84.9341 229.073 97.6395 221.171 111.52 215.99C118.242 213.558 125.195 211.819 132.27 210.8H258.92C264.508 210.909 270.068 211.607 275.51 212.88C288.81 216 297.76 221.75 305.61 226.88C313.95 232.35 325.61 240.01 336.22 254.39C343.017 263.164 347.961 273.227 350.75 283.97C353.12 293.4 355.15 301.53 351.27 310.43C346.41 321.59 335.49 326.55 333.11 327.56C329.964 328.89 326.644 329.762 323.25 330.15H70C64.4541 328.481 59.3248 325.655 54.95 321.86Z" fill="url(#paint3_linear_1_20)"/>
<path d="M135.92 306.62C152.605 306.62 166.13 293.095 166.13 276.41C166.13 259.725 152.605 246.2 135.92 246.2C119.235 246.2 105.71 259.725 105.71 276.41C105.71 293.095 119.235 306.62 135.92 306.62Z" fill="url(#paint4_linear_1_20)" stroke="white" stroke-width="7" stroke-miterlimit="10"/>
<path d="M255.81 306.62C272.495 306.62 286.02 293.095 286.02 276.41C286.02 259.725 272.495 246.2 255.81 246.2C239.125 246.2 225.6 259.725 225.6 276.41C225.6 293.095 239.125 306.62 255.81 306.62Z" fill="url(#paint5_linear_1_20)" stroke="white" stroke-width="7" stroke-miterlimit="10"/>
<path d="M141.64 278.58C147.649 278.58 152.52 273.709 152.52 267.7C152.52 261.691 147.649 256.82 141.64 256.82C135.631 256.82 130.76 261.691 130.76 267.7C130.76 273.709 135.631 278.58 141.64 278.58Z" fill="white"/>
<path d="M264.74 279.91C270.749 279.91 275.62 275.039 275.62 269.03C275.62 263.021 270.749 258.15 264.74 258.15C258.731 258.15 253.86 263.021 253.86 269.03C253.86 275.039 258.731 279.91 264.74 279.91Z" fill="white"/>
<path d="M165.74 347.31C176.65 347.74 188.56 347.71 201.34 346.94C216.554 346.027 231.694 344.149 246.67 341.32C247.361 346.908 246.843 352.58 245.15 357.95C244.03 361.47 239.69 373.35 227.29 379.95C218.44 384.74 210.01 384.32 205.44 384.06C198.142 383.715 191.05 381.524 184.83 377.69C169.79 368.11 166.44 351.06 165.74 347.31Z" fill="url(#paint6_linear_1_20)"/>
<path d="M245.63 356.31C230.649 358.966 215.51 360.636 200.31 361.31C189.78 361.83 179.8 361.79 170.5 361.44C168.235 356.991 166.647 352.228 165.79 347.31C176.71 347.73 188.62 347.69 201.38 346.92C216.591 346.018 231.728 344.144 246.7 341.31C247.31 346.332 246.947 351.425 245.63 356.31V356.31Z" fill="#FFFDFC"/>
<path opacity="0.67" d="M296.76 150.2C297.216 154.199 297.948 158.162 298.95 162.06C300.61 168.57 302.64 176.19 308.35 183.55C311.21 187.23 313.6 190.24 318.02 191.87C319.34 192.36 325.29 194.57 331.18 191.34C336.9 188.2 338.37 182.26 338.7 180.59C339.95 174.32 336.98 169.32 335.21 166.35C332.321 161.695 328.24 157.897 323.39 155.35C312.74 149.18 301.83 149.63 296.76 150.2Z" fill="white"/>
<path opacity="0.42" d="M271.37 150.19C267.74 147.33 266.13 142.13 267.84 138.42C270.63 132.37 281.99 130.93 286.28 136.42C287.735 138.507 288.378 141.054 288.089 143.582C287.8 146.109 286.598 148.445 284.71 150.15C280.79 153.58 275.05 153.06 271.37 150.19Z" fill="url(#paint7_radial_1_20)"/>
<path d="M272.81 222.82C276.56 223.306 280.248 224.191 283.81 225.46C287.397 226.714 290.878 228.252 294.22 230.06C297.554 231.853 300.705 233.966 303.63 236.37C306.54 238.78 309.32 241.37 312.07 243.9C314.82 246.43 317.46 249.15 319.97 251.96C322.48 254.77 324.77 257.74 326.97 260.78C331.261 266.837 334.958 273.293 338.01 280.06L337.4 280.39C333.507 274.197 329.095 268.345 324.21 262.9C321.8 260.18 319.27 257.57 316.63 255.13C313.99 252.69 311.26 250.3 308.42 248.08C305.577 245.864 302.616 243.805 299.55 241.91C296.55 239.98 293.55 238.01 290.55 235.97L281.6 229.85C278.6 227.77 275.54 225.73 272.51 223.43L272.81 222.82Z" fill="white"/>
</g>
<path d="M631.546 281.779V321.426H502.777V281.779H631.546ZM517.856 181.305V428H467.026V181.305H517.856ZM667.805 181.305V428H617.145V181.305H667.805ZM793.355 431.389C779.123 431.389 766.359 429.13 755.063 424.611C743.768 419.98 734.167 413.598 726.26 405.465C718.466 397.333 712.479 387.901 708.3 377.17C704.12 366.326 702.031 354.805 702.031 342.605V335.828C702.031 321.935 704.007 309.227 707.961 297.706C711.914 286.184 717.562 276.188 724.904 267.716C732.359 259.244 741.396 252.749 752.014 248.231C762.632 243.6 774.605 241.284 787.934 241.284C800.924 241.284 812.445 243.43 822.498 247.723C832.551 252.015 840.966 258.115 847.744 266.021C854.634 273.928 859.83 283.417 863.332 294.486C866.833 305.443 868.584 317.642 868.584 331.084V351.416H722.871V318.885H820.634V315.157C820.634 308.38 819.392 302.337 816.907 297.028C814.535 291.606 810.92 287.314 806.063 284.151C801.206 280.988 794.993 279.407 787.425 279.407C780.987 279.407 775.452 280.819 770.821 283.643C766.19 286.466 762.406 290.42 759.469 295.503C756.645 300.586 754.499 306.573 753.03 313.463C751.675 320.24 750.997 327.695 750.997 335.828V342.605C750.997 349.948 752.014 356.725 754.047 362.938C756.193 369.15 759.186 374.515 763.027 379.034C766.98 383.552 771.724 387.054 777.259 389.539C782.907 392.024 789.289 393.266 796.405 393.266C805.216 393.266 813.405 391.572 820.973 388.183C828.654 384.681 835.262 379.429 840.797 372.426L864.518 398.18C860.677 403.715 855.425 409.023 848.76 414.106C842.209 419.189 834.302 423.369 825.04 426.645C815.777 429.807 805.216 431.389 793.355 431.389ZM947.879 167.75V428H898.913V167.75H947.879ZM1037 279.915V498.484H988.204V244.673H1033.44L1037 279.915ZM1153.06 334.303V337.861C1153.06 351.19 1151.48 363.559 1148.32 374.967C1145.27 386.376 1140.75 396.316 1134.76 404.788C1128.78 413.146 1121.32 419.698 1112.4 424.442C1103.59 429.073 1093.42 431.389 1081.9 431.389C1070.72 431.389 1061 429.13 1052.76 424.611C1044.51 420.093 1037.57 413.768 1031.92 405.635C1026.38 397.389 1021.92 387.844 1018.53 377C1015.14 366.157 1012.55 354.522 1010.74 342.097V332.778C1012.55 319.45 1015.14 307.25 1018.53 296.181C1021.92 284.998 1026.38 275.34 1031.92 267.208C1037.57 258.962 1044.46 252.58 1052.59 248.062C1060.83 243.543 1070.49 241.284 1081.56 241.284C1093.2 241.284 1103.42 243.487 1112.23 247.892C1121.15 252.297 1128.61 258.623 1134.59 266.869C1140.69 275.114 1145.27 284.942 1148.32 296.35C1151.48 307.759 1153.06 320.41 1153.06 334.303ZM1104.1 337.861V334.303C1104.1 326.509 1103.42 319.337 1102.06 312.785C1100.82 306.121 1098.79 300.304 1095.96 295.333C1093.25 290.363 1089.64 286.523 1085.12 283.812C1080.71 280.988 1075.35 279.576 1069.02 279.576C1062.36 279.576 1056.66 280.649 1051.91 282.795C1047.28 284.942 1043.5 288.048 1040.56 292.114C1037.62 296.181 1035.42 301.038 1033.95 306.686C1032.48 312.333 1031.58 318.715 1031.24 325.832V349.383C1031.81 357.742 1033.39 365.253 1035.98 371.917C1038.58 378.469 1042.59 383.665 1048.01 387.505C1053.44 391.346 1060.55 393.266 1069.36 393.266C1075.8 393.266 1081.22 391.854 1085.63 389.03C1090.03 386.093 1093.59 382.083 1096.3 377C1099.13 371.917 1101.1 366.044 1102.23 359.379C1103.48 352.715 1104.1 345.542 1104.1 337.861ZM1235.75 407.329L1284.37 244.673H1336.73L1263.03 455.618C1261.44 460.249 1259.3 465.219 1256.59 470.528C1253.99 475.837 1250.43 480.863 1245.91 485.607C1241.51 490.465 1235.92 494.418 1229.14 497.468C1222.47 500.518 1214.28 502.042 1204.57 502.042C1199.94 502.042 1196.16 501.76 1193.22 501.195C1190.28 500.631 1186.78 499.84 1182.71 498.823V463.073C1183.96 463.073 1185.26 463.073 1186.61 463.073C1187.97 463.186 1189.27 463.242 1190.51 463.242C1196.95 463.242 1202.2 462.508 1206.27 461.04C1210.33 459.571 1213.61 457.312 1216.09 454.262C1218.58 451.325 1220.55 447.485 1222.02 442.741L1235.75 407.329ZM1215.41 244.673L1255.23 377.509L1262.18 429.186L1228.97 432.744L1163.06 244.673H1215.41Z" fill="white"/>
<defs>
<linearGradient id="paint0_linear_1_20" x1="43.26" y1="422.69" x2="351.13" y2="167.07" gradientUnits="userSpaceOnUse">
<stop stop-color="#1DBEDF"/>
<stop offset="0.13" stop-color="#22BFDD"/>
<stop offset="0.28" stop-color="#31C2D6"/>
<stop offset="0.44" stop-color="#49C7CC"/>
<stop offset="0.61" stop-color="#6BCEBC"/>
<stop offset="0.79" stop-color="#97D7A9"/>
<stop offset="0.98" stop-color="#CBE292"/>
<stop offset="1" stop-color="#D2E38F"/>
</linearGradient>
<linearGradient id="paint1_linear_1_20" x1="136.77" y1="118.56" x2="250.33" y2="107.77" gradientUnits="userSpaceOnUse">
<stop stop-color="#1DBEDF"/>
<stop offset="0.04" stop-color="#25C0DB"/>
<stop offset="0.38" stop-color="#6FCFBB"/>
<stop offset="0.67" stop-color="#A4DAA3"/>
<stop offset="0.88" stop-color="#C6E095"/>
<stop offset="1" stop-color="#D2E38F"/>
</linearGradient>
<linearGradient id="paint2_linear_1_20" x1="157.68" y1="55.97" x2="358.58" y2="20.31" gradientUnits="userSpaceOnUse">
<stop stop-color="#1DBEDF"/>
<stop offset="0.03" stop-color="#22BFDD"/>
<stop offset="0.07" stop-color="#31C2D7"/>
<stop offset="0.11" stop-color="#49C6CE"/>
<stop offset="0.15" stop-color="#6BCCC1"/>
<stop offset="0.19" stop-color="#96D4B0"/>
<stop offset="0.22" stop-color="#B4D9A4"/>
<stop offset="1" stop-color="#D2E38F"/>
</linearGradient>
<linearGradient id="paint3_linear_1_20" x1="197.56" y1="323.34" x2="199.09" y2="213.37" gradientUnits="userSpaceOnUse">
<stop stop-color="#0E161B"/>
<stop offset="1" stop-color="#0A3146"/>
</linearGradient>
<linearGradient id="paint4_linear_1_20" x1="105.71" y1="276.41" x2="166.13" y2="276.41" gradientUnits="userSpaceOnUse">
<stop stop-color="#0E161B"/>
<stop offset="1" stop-color="#0A3146"/>
</linearGradient>
<linearGradient id="paint5_linear_1_20" x1="225.59" y1="276.41" x2="286.03" y2="276.41" gradientUnits="userSpaceOnUse">
<stop stop-color="#0E161B"/>
<stop offset="1" stop-color="#0A3146"/>
</linearGradient>
<linearGradient id="paint6_linear_1_20" x1="169.13" y1="372.98" x2="246.24" y2="347.47" gradientUnits="userSpaceOnUse">
<stop stop-color="#18A8B3"/>
<stop offset="0.18" stop-color="#1DAAB2"/>
<stop offset="0.41" stop-color="#2DAFB1"/>
<stop offset="0.66" stop-color="#46B8AF"/>
<stop offset="0.93" stop-color="#6AC4AB"/>
<stop offset="1" stop-color="#75C8AA"/>
</linearGradient>
<radialGradient id="paint7_radial_1_20" cx="0" cy="0" r="1" gradientUnits="userSpaceOnUse" gradientTransform="translate(277.66 142.78) scale(10.15)">
<stop stop-color="white"/>
<stop offset="0.17" stop-color="#FDFEFA"/>
<stop offset="0.36" stop-color="#F7FAEB"/>
<stop offset="0.58" stop-color="#EDF4D3"/>
<stop offset="0.81" stop-color="#E0ECB1"/>
<stop offset="1" stop-color="#D2E38F"/>
</radialGradient>
<clipPath id="clip0_1_20">
<rect width="400.16" height="428.07" fill="white"/>
</clipPath>
</defs>
</svg>
