<svg xmlns="http://www.w3.org/2000/svg" version="1.1" xmlns:xlink="http://www.w3.org/1999/xlink" xmlns:svgjs="http://svgjs.com/svgjs" width="1000" height="1000"><rect width="1000" height="1000" rx="200" ry="200" fill="#ffffff"></rect><g transform="matrix(1.8688532249398464,0,0,1.8688532249398464,126.08369777221151,99.99356889070049)"><svg xmlns="http://www.w3.org/2000/svg" version="1.1" xmlns:xlink="http://www.w3.org/1999/xlink" xmlns:svgjs="http://svgjs.com/svgjs" width="400.16" height="428.07"><svg xmlns="http://www.w3.org/2000/svg" xmlns:xlink="http://www.w3.org/1999/xlink" viewBox="0 0 400.16 428.07"><defs><style>.cls-1{fill:url(#linear-gradient);}.cls-2{fill:url(#linear-gradient-2);}.cls-3{fill:url(#linear-gradient-3);}.cls-4{fill:url(#linear-gradient-4);}.cls-5,.cls-6{stroke:#fff;stroke-miterlimit:10;stroke-width:7px;}.cls-5{fill:url(#linear-gradient-5);}.cls-6{fill:url(#linear-gradient-6);}.cls-10,.cls-7{fill:#fff;}.cls-8{fill:url(#linear-gradient-7);}.cls-9{fill:#fffdfc;}.cls-10{opacity:0.67;}.cls-11{opacity:0.42;fill:url(#radial-gradient);}</style><linearGradient id="linear-gradient" x1="140.82" y1="579.63" x2="448.69" y2="324.01" gradientUnits="userSpaceOnUse"><stop offset="0" stop-color="#1dbedf"></stop><stop offset="0.13" stop-color="#22bfdd"></stop><stop offset="0.28" stop-color="#31c2d6"></stop><stop offset="0.44" stop-color="#49c7cc"></stop><stop offset="0.61" stop-color="#6bcebc"></stop><stop offset="0.79" stop-color="#97d7a9"></stop><stop offset="0.98" stop-color="#cbe292"></stop><stop offset="1" stop-color="#d2e38f"></stop></linearGradient><linearGradient id="linear-gradient-2" x1="234.33" y1="275.5" x2="347.89" y2="264.71" gradientUnits="userSpaceOnUse"><stop offset="0" stop-color="#1dbedf"></stop><stop offset="0.04" stop-color="#25c0db"></stop><stop offset="0.38" stop-color="#6fcfbb"></stop><stop offset="0.67" stop-color="#a4daa3"></stop><stop offset="0.88" stop-color="#c6e095"></stop><stop offset="1" stop-color="#d2e38f"></stop></linearGradient><linearGradient id="linear-gradient-3" x1="255.24" y1="212.91" x2="456.14" y2="177.25" gradientUnits="userSpaceOnUse"><stop offset="0" stop-color="#1dbedf"></stop><stop offset="0.03" stop-color="#22bfdd"></stop><stop offset="0.07" stop-color="#31c2d7"></stop><stop offset="0.11" stop-color="#49c6ce"></stop><stop offset="0.15" stop-color="#6bccc1"></stop><stop offset="0.19" stop-color="#96d4b0"></stop><stop offset="0.22" stop-color="#b4d9a4"></stop><stop offset="1" stop-color="#d2e38f"></stop></linearGradient><linearGradient id="linear-gradient-4" x1="295.12" y1="480.28" x2="296.65" y2="370.31" gradientUnits="userSpaceOnUse"><stop offset="0" stop-color="#0e161b"></stop><stop offset="1" stop-color="#0a3146"></stop></linearGradient><linearGradient id="linear-gradient-5" x1="105.71" y1="276.41" x2="166.13" y2="276.41" xlink:href="#linear-gradient-4"></linearGradient><linearGradient id="linear-gradient-6" x1="225.59" y1="276.41" x2="286.03" y2="276.41" xlink:href="#linear-gradient-4"></linearGradient><linearGradient id="linear-gradient-7" x1="266.69" y1="529.92" x2="343.8" y2="504.41" gradientUnits="userSpaceOnUse"><stop offset="0" stop-color="#18a8b3"></stop><stop offset="0.18" stop-color="#1daab2"></stop><stop offset="0.41" stop-color="#2dafb1"></stop><stop offset="0.66" stop-color="#46b8af"></stop><stop offset="0.93" stop-color="#6ac4ab"></stop><stop offset="1" stop-color="#75c8aa"></stop></linearGradient><radialGradient id="radial-gradient" cx="375.22" cy="299.72" r="10.15" gradientUnits="userSpaceOnUse"><stop offset="0" stop-color="#fff"></stop><stop offset="0.17" stop-color="#fdfefa"></stop><stop offset="0.36" stop-color="#f7faeb"></stop><stop offset="0.58" stop-color="#edf4d3"></stop><stop offset="0.81" stop-color="#e0ecb1"></stop><stop offset="1" stop-color="#d2e38f"></stop></radialGradient></defs><title>Untitled-1</title><g id="Layer_2" data-name="Layer 2"><path class="cls-1" d="M223.39,286.56a201.38,201.38,0,0,0-36.67,13.05c-16.07,7.59-40.67,19.05-60,44.46-19.5,25.57-24.15,51.61-27,67.81-1.63,9.32-1.78,25.82-2.07,58.81-.4,44.14,1.32,50.49,4.15,56.74,9.61,21.28,28.32,33.23,38.05,39.44a114.06,114.06,0,0,0,67.81,18c26.58-1.06,102.92-.72,208.33,0a65.69,65.69,0,0,0,10.32-1.38A68.71,68.71,0,0,0,447,575.17a98.91,98.91,0,0,0,40.13-45.66c3.76-8.87,5.28-16.28,6.92-24.22a177.94,177.94,0,0,0,3.46-34.6c.35-23.84.61-41.74-4.15-62.27-10.35-44.62-37.79-73-42.21-77.5-30.69-31-65.25-40-76.8-42.9-9.15-2.26-23.4-3.13-51.9-4.84C255.49,279.17,232.62,284.24,223.39,286.56Z" transform="translate(-97.56 -156.94)"></path><path class="cls-2" d="M241.5,283.37q.09-8.82.17-17.64a28.91,28.91,0,0,1,0-5.78c.31-3.08.9-3.88,1.26-4.28a5.26,5.26,0,0,1,3.52-1.51h96.33a7.32,7.32,0,0,1,3,1.51,7.55,7.55,0,0,1,2.52,4.78v24.4Z" transform="translate(-97.56 -156.94)"></path><path class="cls-3" d="M289.2,254.16V188.84a15.92,15.92,0,0,1-6-4.28c-5.06-5.86-3.65-13.39-3.42-14.53.29-1.46,1.74-8.6,8.33-11.75,5.74-2.75,11.32-.52,12.61,0a16.79,16.79,0,0,1,8.76,7.91c2.77,5.63,2.32,13.16-2.14,17.95a14.86,14.86,0,0,1-6.83,4.06v66Z" transform="translate(-97.56 -156.94)"></path><path class="cls-4" d="M152.51,478.8c-2-1.78-8.7-7.71-11.42-16.61-3.17-10.39.64-19.56,5.19-30.1a111.22,111.22,0,0,1,62.8-59.16,105,105,0,0,1,20.75-5.19H356.48a79.66,79.66,0,0,1,16.59,2.08c13.3,3.12,22.25,8.87,30.1,14,8.34,5.47,20,13.13,30.61,27.51a81.91,81.91,0,0,1,14.53,29.58c2.37,9.43,4.4,17.56.52,26.46-4.86,11.16-15.78,16.12-18.16,17.13a35.73,35.73,0,0,1-9.86,2.59H167.56A41,41,0,0,1,152.51,478.8Z" transform="translate(-97.56 -156.94)"></path><circle class="cls-5" cx="135.92" cy="276.41" r="30.21"></circle><circle class="cls-6" cx="255.81" cy="276.41" r="30.21"></circle><circle class="cls-7" cx="141.64" cy="267.7" r="10.88"></circle><circle class="cls-7" cx="264.74" cy="269.03" r="10.88"></circle><path class="cls-8" d="M263.3,504.25c10.91.43,22.82.4,35.6-.37a360.59,360.59,0,0,0,45.33-5.62,39.27,39.27,0,0,1-1.52,16.63c-1.12,3.52-5.46,15.4-17.86,22C316,541.68,307.57,541.26,303,541a43.16,43.16,0,0,1-20.61-6.37C267.35,525.05,264,508,263.3,504.25Z" transform="translate(-97.56 -156.94)"></path><path class="cls-9" d="M343.19,513.25v0a347.8,347.8,0,0,1-45.32,5c-10.53.52-20.51.48-29.81.13l0,0a50.09,50.09,0,0,1-4.71-14.13c10.92.42,22.83.38,35.59-.39a357.32,357.32,0,0,0,45.32-5.61A39.39,39.39,0,0,1,343.19,513.25Z" transform="translate(-97.56 -156.94)"></path><path class="cls-10" d="M394.32,307.14A87.5,87.5,0,0,0,396.51,319c1.66,6.51,3.69,14.13,9.4,21.49,2.86,3.68,5.25,6.69,9.67,8.32,1.32.49,7.27,2.7,13.16-.53,5.72-3.14,7.19-9.08,7.52-10.75,1.25-6.27-1.72-11.27-3.49-14.24a30.72,30.72,0,0,0-11.82-11C410.3,306.12,399.39,306.57,394.32,307.14Z" transform="translate(-97.56 -156.94)"></path><path class="cls-11" d="M368.93,307.13c-3.63-2.86-5.24-8.06-3.53-11.77,2.79-6.05,14.15-7.49,18.44-2a10.45,10.45,0,0,1-1.57,13.73C378.35,310.52,372.61,310,368.93,307.13Z" transform="translate(-97.56 -156.94)"></path><path class="cls-7" d="M370.37,379.76a53.19,53.19,0,0,1,11,2.64A71.45,71.45,0,0,1,391.78,387a58.35,58.35,0,0,1,9.41,6.31c2.91,2.41,5.69,5,8.44,7.53s5.39,5.25,7.9,8.06,4.8,5.78,7,8.82A115.45,115.45,0,0,1,435.57,437l-.61.33a129,129,0,0,0-13.19-17.49c-2.41-2.72-4.94-5.33-7.58-7.77s-5.37-4.83-8.21-7.05a99.65,99.65,0,0,0-8.87-6.17c-3-1.93-6-3.9-9-5.94l-8.95-6.12c-3-2.08-6.06-4.12-9.09-6.42Z" transform="translate(-97.56 -156.94)"></path></g></svg></svg></g></svg>